<svg width="146" height="143" viewBox="0 0 146 143" fill="none" xmlns="http://www.w3.org/2000/svg">
<path d="M0 15.6406V82.6719C0 86.374 3.064 89.375 6.84375 89.375H29.6562C33.436 89.375 36.5 86.374 36.5 82.6719V15.6406C36.5 11.9385 33.436 8.9375 29.6562 8.9375H6.84375C3.064 8.9375 0 11.9385 0 15.6406ZM11.4062 71.5C11.4062 67.7979 14.4703 64.7969 18.25 64.7969C22.0297 64.7969 25.0937 67.7979 25.0937 71.5C25.0937 75.2021 22.0297 78.2031 18.25 78.2031C14.4703 78.2031 11.4062 75.2021 11.4062 71.5ZM88.9687 143C83.2134 143 80.5609 132.026 79.2931 126.858C77.8086 120.807 76.2736 114.549 72.0521 110.407C62.7934 101.323 57.936 89.7481 46.6399 78.8153C46.3184 78.5041 46.0632 78.1335 45.8891 77.725C45.7149 77.3165 45.6252 76.8782 45.6253 76.4355V16.7302C45.6253 14.9033 47.1204 13.4127 48.9853 13.3792C53.4996 13.2982 59.4488 10.8434 63.999 8.86069C73.0539 4.91507 84.3233 0.00474805 98.0923 0H98.9033C111.101 0 125.526 0.11535 131.347 8.30545C133.74 11.6729 134.325 15.856 133.1 20.771C137.751 25.5339 140.247 34.4183 137.771 41.6504C142.774 48.1949 143.23 57.3279 140.425 63.8459L140.457 63.8766C143.848 67.2139 146.024 72.6071 146 77.6172C145.956 86.0944 138.541 93.8438 129.018 93.8438H100.011C102.094 101.759 109.5 108.404 109.5 120.251C109.5 140.766 95.8125 143 88.9687 143Z" fill="#32438E"/>
</svg>
