<svg width="146" height="143" viewBox="0 0 146 143" fill="none" xmlns="http://www.w3.org/2000/svg">
<path d="M146.99 126.042L145.788 59.0216C145.722 55.3201 142.605 52.3745 138.825 52.4422L116.017 52.8511C112.237 52.9188 109.228 55.9743 109.294 59.6758L110.495 126.696C110.562 130.398 113.679 133.343 117.458 133.276L140.267 132.867C144.046 132.799 147.056 129.744 146.99 126.042ZM134.584 70.3961C134.65 74.0976 131.641 77.1531 127.862 77.2208C124.082 77.2886 120.965 74.3429 120.899 70.6414C120.832 66.9399 123.842 63.8845 127.621 63.8167C131.4 63.749 134.518 66.6946 134.584 70.3961ZM55.7526 0.297681C61.507 0.194534 64.3558 11.1196 65.716 16.2636C67.3087 22.2873 68.9556 28.5162 73.2506 32.5824C82.6707 41.4988 87.7347 52.9848 99.225 63.7134C99.552 64.0188 99.8138 64.3848 99.9952 64.7901C100.177 65.1955 100.274 65.6321 100.282 66.0747L101.352 125.77C101.385 127.597 99.9167 129.114 98.0527 129.181C93.5406 129.343 87.6363 131.904 83.1223 133.968C74.1397 138.075 62.9601 143.187 49.1933 143.438L48.3825 143.453C36.1863 143.671 21.7617 143.815 15.7955 135.73C13.3425 132.406 12.6819 128.234 13.8192 123.298C9.08314 118.619 6.4289 109.781 8.77433 102.506C3.65507 96.0518 3.0355 86.9285 5.72274 80.3613L5.69082 80.3312C2.2402 77.0551 -0.0318537 71.7018 -0.0976944 66.6921C-0.205146 58.2155 7.06913 50.3345 16.5907 50.1638L45.5932 49.6439C43.3681 41.7673 35.8447 35.256 35.6324 23.4113C35.2647 2.89966 48.9099 0.420335 55.7526 0.297681Z" fill="#32438E"/>
</svg>
